<svg id="visual" viewBox="0 0 960 250" width="960" height="250" xmlns="http://www.w3.org/2000/svg" xmlns:xlink="http://www.w3.org/1999/xlink" version="1.1"><rect x="0" y="0" width="960" height="250" fill="#7bac92"></rect><path d="M0 72L32 73.3C64 74.7 128 77.3 192 78.3C256 79.3 320 78.7 384 80.7C448 82.7 512 87.3 576 87.7C640 88 704 84 768 81.7C832 79.3 896 78.7 928 78.3L960 78L960 251L928 251C896 251 832 251 768 251C704 251 640 251 576 251C512 251 448 251 384 251C320 251 256 251 192 251C128 251 64 251 32 251L0 251Z" fill="#7bac92"></path><path d="M0 105L32 109.5C64 114 128 123 192 125.5C256 128 320 124 384 119.5C448 115 512 110 576 106.7C640 103.3 704 101.7 768 102.3C832 103 896 106 928 107.5L960 109L960 251L928 251C896 251 832 251 768 251C704 251 640 251 576 251C512 251 448 251 384 251C320 251 256 251 192 251C128 251 64 251 32 251L0 251Z" fill="#8abaa0"></path><path d="M0 163L32 159.7C64 156.3 128 149.7 192 147.8C256 146 320 149 384 149.7C448 150.3 512 148.7 576 147.7C640 146.7 704 146.3 768 149.5C832 152.7 896 159.3 928 162.7L960 166L960 251L928 251C896 251 832 251 768 251C704 251 640 251 576 251C512 251 448 251 384 251C320 251 256 251 192 251C128 251 64 251 32 251L0 251Z" fill="#9ac9ae"></path><path d="M0 180L32 179.2C64 178.3 128 176.7 192 178.2C256 179.7 320 184.3 384 184.2C448 184 512 179 576 176.7C640 174.3 704 174.7 768 174.8C832 175 896 175 928 175L960 175L960 251L928 251C896 251 832 251 768 251C704 251 640 251 576 251C512 251 448 251 384 251C320 251 256 251 192 251C128 251 64 251 32 251L0 251Z" fill="#aad8bc"></path><path d="M0 222L32 219.7C64 217.3 128 212.7 192 213.2C256 213.7 320 219.3 384 220.8C448 222.3 512 219.7 576 218.2C640 216.7 704 216.3 768 213.8C832 211.3 896 206.7 928 204.3L960 202L960 251L928 251C896 251 832 251 768 251C704 251 640 251 576 251C512 251 448 251 384 251C320 251 256 251 192 251C128 251 64 251 32 251L0 251Z" fill="#bae7cb"></path></svg>